<svg id="Layer_1" data-name="Layer 1" xmlns="http://www.w3.org/2000/svg" viewBox="0 0 618.84 624.92"><defs><style>.cls-1{fill:#f26522;}.cls-2{fill:#45c6e5;}.cls-3{fill:#fff;}.cls-4{fill:#135f70;}</style></defs><path class="cls-1" d="M31.78,310.16l230.91,26.73v75Q209.47,422.15,141.6,430q29.1,3.6,121.09,16.74v74.55L31.78,548.2V489.87l80.57-6.35,77.89-6.13q-60.46-3.31-158.46-16.6V398.43q10.13-1.24,76.16-6.54l87.86-6.64q-83.85-5.12-164-16.76Z"/><path class="cls-1" d="M31.78,177.38H78V213h184.7v60H78v35.51H31.78Z"/><path class="cls-1" d="M31.78,25.62H262.69V85.67h-97v18h97v60.05H31.78v-60h82.58v-18H31.78Z"/><path class="cls-2" d="M290.27,404.43a27.58,27.58,0,0,0-27.58-27.58V432A27.58,27.58,0,0,0,290.27,404.43Z"/><path class="cls-2" d="M290.27,475.2a27.58,27.58,0,0,0-27.58-27.58v55.16A27.58,27.58,0,0,0,290.27,475.2Z"/><path class="cls-2" d="M423.74,163.61,346.59,80a74.59,74.59,0,0,0-83.9-18.08V343.6a74.59,74.59,0,0,0,87.05-10.24L419.52,269A74.55,74.55,0,0,0,423.74,163.61Z"/><circle class="cls-3" cx="369.77" cy="213.49" r="31.16"/><path class="cls-4" d="M387.14,212.12a16.73,16.73,0,0,0-4.53-3.48l-6,11-3.06-12.93a16.84,16.84,0,1,0,13.61,5.37Z"/><path class="cls-4" d="M405.44,224.39a30,30,0,0,0,3.93-14.48,35.11,35.11,0,0,0-3.27-15.07,43,43,0,0,0-10.84-14.41,3.45,3.45,0,1,1,4.54-5.19A49.66,49.66,0,0,1,412.38,192a42.14,42.14,0,0,1,3.89,18,36.94,36.94,0,0,1-4.84,17.79,3.45,3.45,0,0,1-6-3.42Z"/><circle class="cls-3" cx="304.17" cy="142.42" r="31.16"/><path class="cls-4" d="M321.54,141.05a16.64,16.64,0,0,0-4.52-3.48l-6,11-3.07-12.94a16.85,16.85,0,1,0,13.61,5.38Z"/><path class="cls-4" d="M333.55,114.83a29.94,29.94,0,0,0-10.71-10.51,35.23,35.23,0,0,0-14.74-4.51,42.74,42.74,0,0,0-17.87,2.41,3.45,3.45,0,1,1-2.31-6.5,49.69,49.69,0,0,1,20.76-2.79,42,42,0,0,1,17.63,5.43,36.8,36.8,0,0,1,13.15,12.92,3.45,3.45,0,1,1-5.91,3.55Z"/><path class="cls-4" d="M269.27,185.71a49.51,49.51,0,0,0-6.58,6.7v62.64c.16.2.29.41.45.6a49.66,49.66,0,0,0,69.95,6.12Z"/></svg>