<svg xmlns="http://www.w3.org/2000/svg" viewBox="0 0 380 80">
  <defs>
    <style>.cls-1 {
      fill: none;
    }

    .cls-2 {
      fill: #34495e;
    }

    .cls-3 {
      fill: #fdb913;
    }</style>
  </defs>
  <g id="Layer_2" data-name="Layer 2">
    <g id="Logo">
      <g id="Logo_-_Light" data-name="Logo - Light">
        <rect class="cls-1" width="380" height="80"/>
        <path class="cls-2"
              d="M80.23,31.6H94.37c9.72,0,12.12,4.18,12.12,9.95s-2.21,10.53-12.58,10.53h-6v7.67H80.23Zm14,14c3.19,0,4.33-.95,4.33-3.61s-1.06-3.68-4.37-3.68h-6.3v7.29Z"/>
        <path class="cls-2"
              d="M127.39,51.32H122.3v8.43h-7.68V31.6h14.29c10.07,0,11.78,4.41,11.78,9.69,0,3.49-.88,7.22-5.44,9l5.13,9.46H132Zm1.25-6.54c3,0,4.1-.61,4.1-3.19s-1-3.3-4.14-3.3h-6.3v6.49Z"/>
        <path class="cls-2"
              d="M148.44,45.66c0-10.83,6.35-14.52,15.27-14.52S179,34.83,179,45.66s-6.39,14.55-15.32,14.55S148.44,56.52,148.44,45.66Zm22.61.15c0-4.37-1.48-7.45-7.34-7.45s-7.33,3.08-7.33,7.45,1.48,7.48,7.33,7.48S171.05,50.18,171.05,45.81Z"/>
        <path class="cls-2"
              d="M187.43,31.6H198c11.36,0,16.3,2.7,16.3,14.06,0,11.17-4.94,14.09-16.3,14.09H187.43Zm11,21.31c7.06,0,7.9-2,7.9-7.25s-.68-7-8.28-7h-2.78V52.91Z"/>
        <path class="cls-2"
              d="M222.08,48.7V31.6H230v16c0,3.84.76,5.74,5.73,5.74s5.74-1.71,5.74-5.74v-16h7.64V48.7c0,5.28-.65,11.62-13.49,11.62S222.08,54,222.08,48.7Z"/>
        <path class="cls-2"
              d="M256.82,45.66c0-10.26,5.7-14.52,15.27-14.52,5.7,0,8.93,1.48,11.66,4.37l-5.43,5.43a7.81,7.81,0,0,0-6.27-2.58c-5.36,0-7.29,2.58-7.29,7.41,0,4.56,1.44,7.37,7.33,7.37a8.47,8.47,0,0,0,6.69-2.77l5.16,5.05c-2.39,2.55-5.5,4.75-12.34,4.75C260.5,60.17,256.82,54.85,256.82,45.66Z"/>
        <path class="cls-2" d="M300.36,38.7H291V31.6h26.59v7.1h-9.34v21h-7.91Z"/>
        <path class="cls-3"
              d="M334.11,48.7V31.6H342v16c0,3.84.76,5.74,5.74,5.74s5.73-1.71,5.73-5.74v-16h7.64V48.7c0,5.28-.64,11.62-13.49,11.62S334.11,54,334.11,48.7Z"/>
        <path class="cls-2"
              d="M45.34,61.37a1.5,1.5,0,0,1-1.5-1.5v-4a1.5,1.5,0,0,1,1.5-1.5h5a3.25,3.25,0,0,0,3.5-3.19V46.87a1.5,1.5,0,0,1,1.5-1.5h2.5c.29,0,1-.89,1-1.69a1.15,1.15,0,0,0-.08-.41c-.66-1.47-1.37-3.57-2.13-5.8-1.12-3.31-2.4-7.07-3.47-8.58a15.13,15.13,0,0,0-12.27-6.21h-5c-7.45,0-13.73,5.82-14,13v.54a14.48,14.48,0,0,0,4.45,10.56,1.49,1.49,0,0,1,.51,1.12v12a1.5,1.5,0,0,1-3,0V48.52a17.69,17.69,0,0,1-5-12.33v-.65a16.71,16.71,0,0,1,17-15.86h5a18,18,0,0,1,14.73,7.48c1.31,1.86,2.6,5.67,3.85,9.35.74,2.15,1.43,4.19,2,5.54a4,4,0,0,1,.34,1.63c0,2.16-1.74,4.69-4,4.69h-1v2.81a6.21,6.21,0,0,1-6.5,6.19h-3.5v2.5A1.5,1.5,0,0,1,45.34,61.37Z"/>
        <path class="cls-3"
              d="M47.75,33.51a2.79,2.79,0,0,1-2.48,2.72,2.6,2.6,0,0,1-.4,0H41.68a2.69,2.69,0,0,1,.4,1.4,2.82,2.82,0,0,1-2.88,2.75A2.9,2.9,0,0,1,38,40.16v2.66H34V40.21a3,3,0,0,1-1.08.2,2.81,2.81,0,0,1-2.87-2.75,2.17,2.17,0,0,1,0-.26,3,3,0,0,1,.84-5.87h.14v-.09a2.82,2.82,0,0,1,2.88-2.75,2.89,2.89,0,0,1,1.52.42A2.85,2.85,0,0,1,38,27.59,2.9,2.9,0,0,1,40.55,29a2.89,2.89,0,0,1,1.55-.44,2.85,2.85,0,0,1,2.8,2.17A2.82,2.82,0,0,1,47.75,33.51Z"/>
        <path class="cls-3" d="M45.27,36.23v0h-.4A2.6,2.6,0,0,0,45.27,36.23Z"/>
      </g>
    </g>
  </g>
</svg>
