<svg id="Layer_1" data-name="Layer 1" xmlns="http://www.w3.org/2000/svg" viewBox="0 0 654.73 821.65">
  <defs>
    <style>.cls-1 {
      fill: #f26522;
    }

    .cls-2 {
      fill: #45c6e5;
    }

    .cls-22, .cls-3 {
      fill: #fff;
    }

    .cls-4 {
      fill: #135f70;
    }

    .cls-5, .cls-6 {
      fill: #414042;
    }

    .cls-6 {
      font-size: 16px;
      font-family: ApotekCond-Regular, Apotek Cond;
    }

    .cls-14, .cls-6 {
      letter-spacing: 0.05em;
    }

    .cls-7 {
      letter-spacing: 0.05em;
    }

    .cls-8 {
      letter-spacing: 0.04em;
    }

    .cls-9 {
      letter-spacing: 0.04em;
    }

    .cls-10 {
      letter-spacing: 0.04em;
    }

    .cls-11 {
      letter-spacing: -0.03em;
    }

    .cls-12 {
      letter-spacing: -0.02em;
    }

    .cls-13 {
      letter-spacing: 0.02em;
    }

    .cls-15 {
      letter-spacing: 0.04em;
    }

    .cls-16 {
      letter-spacing: -0.03em;
    }

    .cls-17 {
      letter-spacing: 0.04em;
    }

    .cls-18 {
      letter-spacing: 0em;
    }

    .cls-19 {
      letter-spacing: 0.06em;
    }

    .cls-20 {
      letter-spacing: 0.01em;
    }

    .cls-21 {
      letter-spacing: 0.04em;
    }

    .cls-22 {
      font-size: 16px;
      font-family: Apotek-Black, Apotek;
      font-weight: 800;
      letter-spacing: 0.08em;
    }</style>
  </defs>
  <path class="cls-1"
        d="M233.16,125.19,219.22,245.6h-39.1q-5.35-27.75-9.47-63.14-1.87,15.18-8.73,63.14H123L109,125.19h30.42l3.31,42,3.2,40.61q1.72-31.51,8.65-82.63h32.52q.65,5.28,3.41,39.72L194,210.72q2.67-43.72,8.74-85.53Z"/>
  <path class="cls-1" d="M302.4,125.19v24.1H283.81V245.6H252.49V149.29H234v-24.1Z"/>
  <path class="cls-1" d="M381.53,125.19V245.6H350.22V195h-9.37V245.6H309.54V125.19h31.31v43.07h9.37V125.19Z"/>
  <path class="cls-2" d="M559.88,442.91a27.73,27.73,0,0,1,27.72-27.73v55.45A27.72,27.72,0,0,1,559.88,442.91Z"/>
  <path class="cls-2" d="M559.88,514.05a27.73,27.73,0,0,1,27.72-27.73v55.45A27.72,27.72,0,0,1,559.88,514.05Z"/>
  <path class="cls-2"
        d="M425.71,200.82l77.56-84A75,75,0,0,1,587.6,98.6V381.75a75,75,0,0,1-87.51-10.28L430,306.73A74.94,74.94,0,0,1,425.71,200.82Z"/>
  <circle class="cls-3" cx="479.97" cy="250.97" r="31.33"/>
  <path class="cls-4" d="M462.5,249.59a16.85,16.85,0,0,1,4.55-3.5l6.06,11.1,3.07-13a16.93,16.93,0,1,1-13.68,5.4Z"/>
  <path class="cls-4"
        d="M444.11,261.92a30.07,30.07,0,0,1-3.95-14.55,35.29,35.29,0,0,1,3.28-15.15,43.08,43.08,0,0,1,10.9-14.49,3.46,3.46,0,1,0-4.56-5.21,49.84,49.84,0,0,0-12.65,16.83,42.25,42.25,0,0,0-3.91,18.12,37.2,37.2,0,0,0,4.86,17.89,3.47,3.47,0,0,0,6-3.44Z"/>
  <circle class="cls-3" cx="545.9" cy="179.52" r="31.33"/>
  <path class="cls-4" d="M528.44,178.15a16.85,16.85,0,0,1,4.55-3.5l6.06,11.1,3.07-13a16.94,16.94,0,1,1-13.68,5.41Z"/>
  <path class="cls-4"
        d="M516.37,151.79a30.16,30.16,0,0,1,10.77-10.56A35.28,35.28,0,0,1,542,136.69a43,43,0,0,1,18,2.43,3.47,3.47,0,0,0,2.32-6.54,50,50,0,0,0-20.86-2.8,42.31,42.31,0,0,0-17.73,5.45,37,37,0,0,0-13.22,13,3.47,3.47,0,1,0,5.94,3.57Z"/>
  <path class="cls-4" d="M581,223a50,50,0,0,1,6.61,6.73v63c-.16.19-.29.4-.45.6a49.91,49.91,0,0,1-70.31,6.15Z"/>
  <path class="cls-5"
        d="M582.73,777H99.21A28.27,28.27,0,0,1,71,748.8V72.85A28.27,28.27,0,0,1,99.21,44.61H582.73A28.27,28.27,0,0,1,611,72.85V748.8A28.27,28.27,0,0,1,582.73,777ZM99.21,68a4.88,4.88,0,0,0-4.87,4.88V748.8a4.88,4.88,0,0,0,4.87,4.88H582.73a4.88,4.88,0,0,0,4.87-4.88V72.85A4.88,4.88,0,0,0,582.73,68Z"/>
  <text class="cls-6" transform="translate(165 378.36)">THIS IS THE ANTI-ME
    <tspan class="cls-7" x="189.52" y="0">E</tspan>
    <tspan x="200.33" y="0">TING!</tspan>
    <tspan class="cls-8">
      <tspan x="0" y="46.17">RESP</tspan>
      <tspan class="cls-9" x="46.66" y="46.17">E</tspan>
      <tspan x="57.27" y="46.17">CT THE GONG</tspan>
      <tspan x="0" y="92.34">CHALLENGE DIR</tspan>
      <tspan class="cls-10" x="141.65" y="92.34">E</tspan>
      <tspan x="152.25" y="92.34">CT</tspan>
      <tspan class="cls-11" x="175.35" y="92.34">L</tspan>
      <tspan class="cls-12" x="184.21" y="92.34">Y</tspan>
      <tspan class="cls-13" x="193.91" y="92.34">,</tspan>
      <tspan class="cls-14" x="198.79" y="92.34"></tspan>
      <tspan class="cls-15" x="204.71" y="92.34">C</tspan>
      <tspan x="216.65" y="92.34">ARE PERSONAL</tspan>
      <tspan class="cls-16" x="352.89" y="92.34">L</tspan>
      <tspan x="361.75" y="92.34">Y</tspan>
    </tspan>
    <tspan x="0" y="138.51">NO P</tspan>
    <tspan class="cls-17" x="43.44" y="138.51">O</tspan>
    <tspan x="55.88" y="138.51">WERPOINTS!</tspan>
    <tspan x="0" y="184.68">DEMO WH</tspan>
    <tspan class="cls-18" x="88.04" y="184.68">A</tspan>
    <tspan x="99.12" y="184.68">T M</tspan>
    <tspan class="cls-18" x="132.56" y="184.68">A</tspan>
    <tspan class="cls-19" x="143.64" y="184.68">T</tspan>
    <tspan x="155" y="184.68">TERS</tspan>
    <tspan x="0" y="230.85">THINK DIFFERENT</tspan>
    <tspan class="cls-16" x="157.79" y="230.85">L</tspan>
    <tspan class="cls-8" x="166.66" y="230.85">Y</tspan>
    <tspan class="cls-20">
      <tspan x="0" y="277.02">F</tspan>
      <tspan class="cls-14" x="9.59" y="277.02">AIL</tspan>
      <tspan x="44.47" y="277.02">F</tspan>
      <tspan class="cls-21" x="54.07" y="277.02">A</tspan>
      <tspan class="cls-14" x="66.16" y="277.02">ST</tspan>
    </tspan>
    <tspan x="0" y="323.19">THERE ARE NO RULES</tspan>
  </text>
  <path class="cls-4" d="M145.15,256.91v37.61h-9.78V278.73h-2.93v15.79h-9.78V256.91h9.78v13.45h2.93V256.91Z"/>
  <path class="cls-4"
        d="M173.09,278.93q0,5.67-.27,8a9,9,0,0,1-5.47,7.31,14,14,0,0,1-5.58,1,14.11,14.11,0,0,1-5.42-1,8.88,8.88,0,0,1-3.87-3,9,9,0,0,1-1.74-4.3,77.85,77.85,0,0,1-.28-8.13V272.5c0-3.78.09-6.45.27-8a9,9,0,0,1,5.47-7.3,13.74,13.74,0,0,1,5.57-1.05,14.13,14.13,0,0,1,5.43,1,9,9,0,0,1,5.61,7.26,81.12,81.12,0,0,1,.28,8.13Zm-9.78-12.35a11.84,11.84,0,0,0-.29-3.36,1.17,1.17,0,0,0-1.2-.73,1.34,1.34,0,0,0-1.17.59c-.27.39-.41,1.56-.41,3.5v17.56a17.08,17.08,0,0,0,.27,4,1.17,1.17,0,0,0,1.24.77,1.21,1.21,0,0,0,1.28-.89,18.87,18.87,0,0,0,.28-4.2Z"/>
  <path class="cls-4"
        d="M200.63,256.91v25.14a42.77,42.77,0,0,1-.28,6,8.25,8.25,0,0,1-1.65,3.56,8.62,8.62,0,0,1-3.61,2.76,13.59,13.59,0,0,1-5.29.94,14.91,14.91,0,0,1-5.94-1.11,9,9,0,0,1-3.86-2.91,8.11,8.11,0,0,1-1.51-3.77q-.23-2-.23-8.35V256.91H188v28.2a11.05,11.05,0,0,0,.27,3.15,1,1,0,0,0,1.08.69,1.13,1.13,0,0,0,1.19-.76,13.86,13.86,0,0,0,.27-3.56V256.91Z"/>
  <path class="cls-4"
        d="M226.8,268.3h-9.08v-2.79a5.53,5.53,0,0,0-.35-2.49,1.29,1.29,0,0,0-1.16-.53,1.49,1.49,0,0,0-1.34.72,4.2,4.2,0,0,0-.45,2.18,6.21,6.21,0,0,0,.51,2.84,7.39,7.39,0,0,0,2.76,2.3q6.54,3.87,8.23,6.36t1.69,8a14,14,0,0,1-.94,5.93A7.35,7.35,0,0,1,223,294a14.39,14.39,0,0,1-6.27,1.29,14,14,0,0,1-6.71-1.49,7.27,7.27,0,0,1-3.63-3.78,19.52,19.52,0,0,1-.86-6.53v-2.46h9.08v4.57a5.93,5.93,0,0,0,.39,2.72,1.47,1.47,0,0,0,1.35.61,1.6,1.6,0,0,0,1.46-.77,4.46,4.46,0,0,0,.47-2.28c0-2.21-.3-3.66-.9-4.34a29.4,29.4,0,0,0-4.58-3.42,46.48,46.48,0,0,1-4.83-3.5,8.15,8.15,0,0,1-2-3,13.3,13.3,0,0,1-.78-4.93,13.78,13.78,0,0,1,1.1-6.32,7.46,7.46,0,0,1,3.57-3.12,14.21,14.21,0,0,1,5.94-1.13,15.55,15.55,0,0,1,6.5,1.23,6.81,6.81,0,0,1,3.55,3.11q.87,1.86.87,6.35Z"/>
  <path class="cls-4" d="M232.35,256.91h16.3v7.53h-6.52v7.13h6.1v7.16h-6.1V287h7.17v7.52h-17Z"/>
  <path class="cls-4"
        d="M263.83,256.91h6.92a52.48,52.48,0,0,1,9.38.54,6.4,6.4,0,0,1,4,2.73q1.54,2.19,1.55,7c0,2.93-.37,4.89-1.1,5.9s-2.16,1.61-4.29,1.81a7.42,7.42,0,0,1,3.9,1.93,5.86,5.86,0,0,1,1.24,2.22,35,35,0,0,1,.25,5.56v9.92h-9.09V282a8.79,8.79,0,0,0-.47-3.74c-.32-.48-1.15-.72-2.5-.72v17h-9.78Zm9.78,6.44v8.36a4.32,4.32,0,0,0,2.31-.45c.44-.31.66-1.28.66-2.94v-2.07a3.14,3.14,0,0,0-.64-2.35A3.63,3.63,0,0,0,273.61,263.35Z"/>
  <path class="cls-4"
        d="M313.35,256.91v25.14a42.77,42.77,0,0,1-.28,6,8,8,0,0,1-1.65,3.56,8.55,8.55,0,0,1-3.61,2.76,13.5,13.5,0,0,1-5.28.94,14.93,14.93,0,0,1-5.95-1.11,9.09,9.09,0,0,1-3.86-2.91,8.11,8.11,0,0,1-1.51-3.77q-.22-2-.23-8.35V256.91h9.78v28.2a11.05,11.05,0,0,0,.27,3.15,1,1,0,0,0,1.08.69,1.12,1.12,0,0,0,1.19-.76,13.86,13.86,0,0,0,.27-3.56V256.91Z"/>
  <path class="cls-4" d="M328.58,256.91V287h5.95v7.52H318.8V256.91Z"/>
  <path class="cls-4" d="M338.56,256.91h16.31v7.53h-6.53v7.13h6.11v7.16h-6.11V287h7.18v7.52h-17Z"/>
  <path class="cls-4"
        d="M380.72,268.3h-9.09v-2.79a5.58,5.58,0,0,0-.34-2.49,1.31,1.31,0,0,0-1.17-.53,1.48,1.48,0,0,0-1.33.72,4.2,4.2,0,0,0-.45,2.18,6.21,6.21,0,0,0,.51,2.84,7.39,7.39,0,0,0,2.76,2.3q6.52,3.87,8.22,6.36c1.14,1.66,1.7,4.33,1.7,8a14,14,0,0,1-.94,5.93A7.38,7.38,0,0,1,377,294a14.33,14.33,0,0,1-6.27,1.29,13.93,13.93,0,0,1-6.7-1.49,7.27,7.27,0,0,1-3.63-3.78,19.27,19.27,0,0,1-.86-6.53v-2.46h9.08v4.57a6.12,6.12,0,0,0,.38,2.72,1.5,1.5,0,0,0,1.36.61,1.59,1.59,0,0,0,1.45-.77,4.35,4.35,0,0,0,.48-2.28c0-2.21-.3-3.66-.91-4.34a29.14,29.14,0,0,0-4.57-3.42,47,47,0,0,1-4.84-3.5,8.41,8.41,0,0,1-2-3,13.3,13.3,0,0,1-.78-4.93c0-2.88.37-5,1.11-6.32a7.39,7.39,0,0,1,3.56-3.12,14.26,14.26,0,0,1,5.95-1.13,15.5,15.5,0,0,1,6.49,1.23,6.8,6.8,0,0,1,3.56,3.11q.87,1.86.87,6.35Z"/>
  <path class="cls-4"
        d="M387.78,256.12v2.68l2.46-.85.75,2-2.46,1,1.54,2.19-1.66,1.23-1.67-2.21-1.65,2.21-1.74-1.23,1.56-2.27-2.48-.95.72-2,2.54.85v-2.68Z"/>
  <circle class="cls-1" cx="139.8" cy="416.4" r="14.32"/>
  <circle class="cls-1" cx="139.8" cy="370.2" r="14.32"/>
  <circle class="cls-1" cx="139.8" cy="462.6" r="14.32"/>
  <circle class="cls-1" cx="139.8" cy="508.8" r="14.32"/>
  <circle class="cls-1" cx="139.8" cy="555" r="14.32"/>
  <circle class="cls-1" cx="139.8" cy="601.2" r="14.32"/>
  <circle class="cls-1" cx="139.8" cy="647.4" r="14.32"/>
  <circle class="cls-1" cx="139.8" cy="693.59" r="14.32"/>
  <text class="cls-22" transform="translate(136.23 377.72)">1</text>
  <text class="cls-22" transform="translate(133.49 423.92)">2</text>
  <text class="cls-22" transform="translate(133.45 470.12)">3</text>
  <text class="cls-22" transform="translate(133.47 516.32)">4</text>
  <text class="cls-22" transform="translate(133.48 562.52)">5</text>
  <text class="cls-22" transform="translate(133.46 608.72)">6</text>
  <text class="cls-22" transform="translate(134.37 654.92)">7</text>
  <text class="cls-22" transform="translate(133.43 701.12)">8</text>
  <path class="cls-4"
        d="M118.72,680.5v3.34l3.08-1.06.93,2.45-3.07,1.29,1.93,2.74-2.08,1.54-2.1-2.76-2.06,2.76-2.18-1.54,2-2.84-3.1-1.19.89-2.45,3.18,1.06V680.5Z"/>
</svg>
