<svg id="Layer_1" data-name="Layer 1" xmlns="http://www.w3.org/2000/svg" viewBox="0 0 618.84 624.92">
  <defs>
    <style>.cls-1 {
      fill: #e6865b;
    }

    .cls-2 {
      fill: #8dd3eb;
    }

    .cls-3 {
      fill: #fff;
    }

    .cls-4 {
      fill: #7ba8b9;
    }</style>
  </defs>
  <path class="cls-1"
        d="M31.78,310.16l230.91,26.73v75Q209.47,422.15,141.6,430q29.1,3.6,121.09,16.74v74.55L31.78,548.2V489.87l80.57-6.35,77.89-6.13q-60.46-3.31-158.46-16.6V398.43q10.13-1.24,76.16-6.54l87.86-6.64q-83.85-5.12-164-16.76Z"/>
  <path class="cls-1" d="M31.78,177.38H78V213h184.7v60H78v35.51H31.78Z"/>
  <path class="cls-1" d="M31.78,25.62H262.69V85.67h-97v18h97v60.05H31.78v-60h82.58v-18H31.78Z"/>
  <path class="cls-2" d="M290.27,404.43a27.58,27.58,0,0,0-27.58-27.58V432A27.58,27.58,0,0,0,290.27,404.43Z"/>
  <path class="cls-2" d="M290.27,475.2a27.58,27.58,0,0,0-27.58-27.58v55.16A27.58,27.58,0,0,0,290.27,475.2Z"/>
  <path class="cls-2"
        d="M423.74,163.61,346.59,80a74.59,74.59,0,0,0-83.9-18.08V343.6a74.59,74.59,0,0,0,87.05-10.24L419.52,269A74.55,74.55,0,0,0,423.74,163.61Z"/>
  <circle class="cls-3" cx="369.77" cy="213.49" r="31.16"/>
  <path class="cls-4" d="M387.14,212.12a16.73,16.73,0,0,0-4.53-3.48l-6,11-3.06-12.93a16.84,16.84,0,1,0,13.61,5.37Z"/>
  <path class="cls-4"
        d="M405.44,224.39a30,30,0,0,0,3.93-14.48,35.11,35.11,0,0,0-3.27-15.07,43,43,0,0,0-10.84-14.41,3.45,3.45,0,1,1,4.54-5.19A49.66,49.66,0,0,1,412.38,192a42.14,42.14,0,0,1,3.89,18,36.94,36.94,0,0,1-4.84,17.79,3.45,3.45,0,0,1-6-3.42Z"/>
  <circle class="cls-3" cx="304.17" cy="142.42" r="31.16"/>
  <path class="cls-4" d="M321.54,141.05a16.64,16.64,0,0,0-4.52-3.48l-6,11-3.07-12.94a16.85,16.85,0,1,0,13.61,5.38Z"/>
  <path class="cls-4"
        d="M333.55,114.83a29.94,29.94,0,0,0-10.71-10.51,35.23,35.23,0,0,0-14.74-4.51,42.74,42.74,0,0,0-17.87,2.41,3.45,3.45,0,1,1-2.31-6.5,49.69,49.69,0,0,1,20.76-2.79,42,42,0,0,1,17.63,5.43,36.8,36.8,0,0,1,13.15,12.92,3.45,3.45,0,1,1-5.91,3.55Z"/>
  <path class="cls-4"
        d="M269.27,185.71a49.51,49.51,0,0,0-6.58,6.7v62.64c.16.2.29.41.45.6a49.66,49.66,0,0,0,69.95,6.12Z"/>
  <path class="cls-4"
        d="M387.68,328.12l31.66,43L406.73,382.9q-10.07-7.35-22-17.53,3.94,5.46,16.14,23L388.31,400,347.63,365.4l9.82-9.14,13.68,12.56L384.36,381q-8.91-10.7-22-29.26L372.83,342q1.8,1.5,13,11.78l14.87,13.75q-12.27-14.91-22.86-30.22Z"/>
  <path class="cls-4"
        d="M416.59,301.22l36.15,38.85-10.1,9.4-15.18-16.31-3,2.81,15.19,16.32-10.1,9.4-36.16-38.85,10.1-9.4,12.93,13.89,3-2.81-12.93-13.9Z"/>
  <path class="cls-4"
        d="M441.79,277.77l41.93,33.47-10.32,9.61-7-6.48-3.61,3.36,5.89,7.55L458.19,335l-31-43.64Zm17.9,30q-6.92-5.89-16.73-14.89,8.84,12.6,13.25,18.13Z"/>
  <path class="cls-4" d="M470.61,251l7.23,7.77-6,5.59,28.92,31.07-10.1,9.4-28.92-31.07-6,5.56-7.24-7.77Z"/>
  <path class="cls-4" d="M411.08,389.14l7.23,7.78-6,5.58,28.91,31.08-10.1,9.4L402.21,411.9l-6,5.56L389,409.69Z"/>
  <path class="cls-4"
        d="M440.3,362l36.15,38.85-10.1,9.4-15.19-16.31-3,2.81L463.33,413l-10.11,9.4-36.15-38.85,10.1-9.4,12.93,13.89,3-2.81-12.93-13.9Z"/>
  <path class="cls-4"
        d="M448,354.75l16.84-15.68,7.24,7.78-6.74,6.27,6.85,7.37,6.31-5.88,6.88,7.39-6.31,5.88,7.95,8.54,7.41-6.9,7.24,7.77L484.19,393.6Z"/>
  <path class="cls-4"
        d="M453.41,429.39l36.16,38.85-10.11,9.4-15.18-16.31-3,2.81,15.18,16.32-10.1,9.4L430.18,451l10.11-9.4,12.93,13.89,3-2.81-12.93-13.9Z"/>
  <path class="cls-4"
        d="M461.15,422.19,478,406.51l7.23,7.77-6.74,6.28,6.86,7.37,6.31-5.88,6.87,7.39-6.31,5.88,7.95,8.54,7.42-6.9,7.23,7.77L497.31,461Z"/>
  <path class="cls-4"
        d="M524.59,394.72l-10.1,9.4-6.29-6.75a16.38,16.38,0,0,0-3.74-3.38,1.92,1.92,0,0,0-2.11.6,2.05,2.05,0,0,0-.76,2.36,18.68,18.68,0,0,0,3.24,4.16l16.8,18a16.76,16.76,0,0,0,3.77,3.38,2.35,2.35,0,0,0,3-2.78,19.68,19.68,0,0,0-3.44-4.39l-4.54-4.88,10.1-9.4,1.41,1.51q5.61,6,7.11,9.35a12,12,0,0,1,.34,7.93,17.56,17.56,0,0,1-5.42,8.58,20.33,20.33,0,0,1-8.81,5.21,10.73,10.73,0,0,1-8-.9q-3.58-2-8.9-7.69l-10.56-11.35a70.74,70.74,0,0,1-5.57-6.56,12,12,0,0,1-2-5.64,13.18,13.18,0,0,1,1.11-6.75,19.67,19.67,0,0,1,4.78-6.53,19.46,19.46,0,0,1,9-5.13,11.3,11.3,0,0,1,7.81.75q3.32,1.72,8.37,7.17Z"/>
  <path class="cls-4"
        d="M540.23,348.59l10.53,22.93,26.18,15.4-10.44,9.72-19.58-12.85,15.49,16.65-10.1,9.41L516.16,371l10.1-9.4,14,15.09-9.54-19.28Z"/>
</svg>
