<svg id="svg" version="1.1" xmlns="http://www.w3.org/2000/svg" xmlns:xlink="http://www.w3.org/1999/xlink" width="400"
     height="400" viewBox="0, 0, 400,400">
  <g id="svgg">
    <path id="1stStripe"
          d="M100.099 198.900 L 100.200 287.400 125.100 287.503 L 150.000 287.606 150.000 199.003 L 150.000 110.400 124.999 110.400 L 99.998 110.400 100.099 198.900 "
          stroke="none" fill="#2ccc74" fill-rule="evenodd"></path>
    <path id="2ndStripe"
          d="M150.000 199.000 L 150.000 287.600 175.000 287.600 L 200.000 287.600 200.000 199.000 L 200.000 110.400 175.000 110.400 L 150.000 110.400 150.000 199.000 "
          stroke="none" fill="#349cdc" fill-rule="evenodd"></path>
    <path id="3rdStripe"
          d="M200.185 110.500 C 200.080 110.775,200.041 150.690,200.097 199.200 L 200.200 287.400 225.200 287.503 L 250.200 287.606 250.098 199.006 L 249.996 110.406 274.898 110.300 C 288.594 110.242,277.429 110.150,250.087 110.097 C 210.614 110.020,200.336 110.103,200.185 110.500 "
          stroke="none" fill="#e44c3c" fill-rule="evenodd"></path>
    <path id="4thStripe"
          d="M250.099 198.900 L 250.200 287.400 275.000 287.400 L 299.800 287.400 299.901 198.900 L 300.002 110.400 275.000 110.400 L 249.998 110.400 250.099 198.900 "
          stroke="none" fill="#f4c40c" fill-rule="evenodd"></path>
    <path id="outerSquare"
          d="M0.000 200.000 L 0.000 400.000 200.000 400.000 L 400.000 400.000 400.000 200.000 L 400.000 0.000 200.000 0.000 L 0.000 0.000 0.000 200.000 M299.901 198.900 L 300.002 287.600 200.101 287.500 L 100.200 287.400 100.099 198.902 L 99.998 110.403 150.299 110.299 C 177.965 110.242,222.920 110.196,250.200 110.198 L 299.800 110.200 299.901 198.900 "
          stroke="none" fill="#344c5c" fill-rule="evenodd"></path>
  </g>
</svg>
