<svg id="Layer_1" data-name="Layer 1" xmlns="http://www.w3.org/2000/svg" viewBox="0 0 654.73 821.65">
  <defs>
    <style>.cls-1 {
      fill: #e6865b;
    }

    .cls-2 {
      fill: #8dd3eb;
    }

    .cls-3 {
      fill: #fff;
    }

    .cls-4 {
      fill: #7ba8b9;
    }

    .cls-5 {
      fill: #ffffff;
    }</style>
  </defs>
  <path class="cls-1"
        d="M233.16,125.19,219.22,245.6h-39.1q-5.35-27.75-9.47-63.14-1.87,15.18-8.73,63.14H123L109,125.19h30.42l3.31,42,3.2,40.61q1.72-31.51,8.65-82.63h32.52q.65,5.28,3.41,39.72L194,210.72q2.67-43.72,8.74-85.53Z"/>
  <path class="cls-1" d="M302.4,125.19v24.1H283.81V245.6H252.49V149.29H234v-24.1Z"/>
  <path class="cls-1" d="M381.53,125.19V245.6H350.22V195h-9.37V245.6H309.54V125.19h31.31v43.07h9.37V125.19Z"/>
  <path class="cls-2" d="M559.88,442.91a27.73,27.73,0,0,1,27.72-27.73v55.45A27.72,27.72,0,0,1,559.88,442.91Z"/>
  <path class="cls-2" d="M559.88,514.05a27.73,27.73,0,0,1,27.72-27.73v55.45A27.72,27.72,0,0,1,559.88,514.05Z"/>
  <path class="cls-2"
        d="M425.71,200.82l77.56-84A75,75,0,0,1,587.6,98.6V381.75a75,75,0,0,1-87.51-10.28L430,306.73A74.94,74.94,0,0,1,425.71,200.82Z"/>
  <circle class="cls-3" cx="479.97" cy="250.97" r="31.33"/>
  <path class="cls-4" d="M462.5,249.59a16.85,16.85,0,0,1,4.55-3.5l6.06,11.1,3.07-13a16.93,16.93,0,1,1-13.68,5.4Z"/>
  <path class="cls-4"
        d="M444.11,261.92a30.07,30.07,0,0,1-3.95-14.55,35.29,35.29,0,0,1,3.28-15.15,43.08,43.08,0,0,1,10.9-14.49,3.46,3.46,0,1,0-4.56-5.21,49.84,49.84,0,0,0-12.65,16.83,42.25,42.25,0,0,0-3.91,18.12,37.2,37.2,0,0,0,4.86,17.89,3.47,3.47,0,0,0,6-3.44Z"/>
  <circle class="cls-3" cx="545.9" cy="179.52" r="31.33"/>
  <path class="cls-4" d="M528.44,178.15a16.85,16.85,0,0,1,4.55-3.5l6.06,11.1,3.07-13a16.94,16.94,0,1,1-13.68,5.41Z"/>
  <path class="cls-4"
        d="M516.37,151.79a30.16,30.16,0,0,1,10.77-10.56A35.28,35.28,0,0,1,542,136.69a43,43,0,0,1,18,2.43,3.47,3.47,0,0,0,2.32-6.54,50,50,0,0,0-20.86-2.8,42.31,42.31,0,0,0-17.73,5.45,37,37,0,0,0-13.22,13,3.47,3.47,0,1,0,5.94,3.57Z"/>
  <path class="cls-4" d="M581,223a50,50,0,0,1,6.61,6.73v63c-.16.19-.29.4-.45.6a49.91,49.91,0,0,1-70.31,6.15Z"/>
  <path class="cls-5"
        d="M582.73,777H99.21A28.27,28.27,0,0,1,71,748.8V72.85A28.27,28.27,0,0,1,99.21,44.61H582.73A28.27,28.27,0,0,1,611,72.85V748.8A28.27,28.27,0,0,1,582.73,777ZM99.21,68a4.88,4.88,0,0,0-4.87,4.88V748.8a4.88,4.88,0,0,0,4.87,4.88H582.73a4.88,4.88,0,0,0,4.87-4.88V72.85A4.88,4.88,0,0,0,582.73,68Z"/>
  <path class="cls-5" d="M168.65,364.41h-3.52V362h9.61v2.42h-3.5v13.95h-2.59Z"/>
  <path class="cls-5" d="M177.06,362h2.54v7.1H184V362h2.56v16.37H184v-6.95H179.6v6.95h-2.54Z"/>
  <path class="cls-5" d="M189.93,362h2.57v16.37h-2.57Z"/>
  <path class="cls-5"
        d="M204.74,375.51c0,1.77-.79,2.85-2.45,2.85H198c-1.38,0-2.39-.83-2.39-2.7V373h2.54v3h4.06v-3.58l-5.42-2.79a2.08,2.08,0,0,1-1.18-2.17v-3.07c0-1.69.78-2.37,2.32-2.37h4.43c1.79,0,2.37.86,2.37,2.77v2.37h-2.52v-2.74h-4.06v3.09l5.44,2.8a2,2,0,0,1,1.14,2.16Z"/>
  <path class="cls-5" d="M213.8,362h2.57v16.37H213.8Z"/>
  <path class="cls-5"
        d="M228.61,375.51c0,1.77-.78,2.85-2.44,2.85h-4.28c-1.39,0-2.4-.83-2.4-2.7V373H222v3h4.05v-3.58l-5.41-2.79a2.08,2.08,0,0,1-1.19-2.17v-3.07c0-1.69.78-2.37,2.32-2.37h4.43c1.79,0,2.37.86,2.37,2.77v2.37h-2.52v-2.74H222v3.09l5.43,2.8a2,2,0,0,1,1.14,2.16Z"/>
  <path class="cls-5" d="M240.14,364.41h-3.52V362h9.62v2.42h-3.5v13.95h-2.6Z"/>
  <path class="cls-5" d="M248.55,362h2.55v7.1h4.43V362h2.57v16.37h-2.57v-6.95H251.1v6.95h-2.55Z"/>
  <path class="cls-5" d="M261.27,362h7.93v2.4h-5.39v4.68h3.83v2.31h-3.83V376h5.39v2.39h-7.93Z"/>
  <path class="cls-5" d="M284.41,375h-4l-.61,3.4h-2.61L280.28,362h4.28l3.07,16.37H285Zm-3.6-2.32H284l-1.41-8.18h-.35Z"/>
  <path class="cls-5"
        d="M296.75,378.36,294,371c-.48-1.33-1.18-3.72-1.81-5.89.1,2.12.18,4.38.18,5.46v7.81h-2.27V362h3.17l2.82,7.78c.53,1.44,1.26,3.91,1.89,6-.08-2.17-.18-4.61-.18-5.74V362h2.27v16.37Z"/>
  <path class="cls-5" d="M305.92,364.41h-3.53V362H312v2.42h-3.5v13.95h-2.59Z"/>
  <path class="cls-5" d="M314.48,362h2.57v16.37h-2.57Z"/>
  <path class="cls-5" d="M320,369.47h5.51v2.37H320Z"/>
  <path class="cls-5"
        d="M339.31,370.15c0-.83.05-2.82.1-4.71-.28,1.49-.55,3.12-.81,4.43l-2,8.49h-3.12l-2-8.46c-.27-1.44-.6-3.07-.88-4.58.08,1.91.15,3.95.15,4.83v8.21h-2.36V362h3.57l3.05,13.5h.15l2.95-13.5h3.57v16.37h-2.34Z"/>
  <path class="cls-5" d="M344.85,362h7.93v2.4h-5.39v4.68h3.83v2.31h-3.83V376h5.39v2.39h-7.93Z"/>
  <path class="cls-5" d="M355.55,362h7.93v2.4H358.1v4.68h3.82v2.31H358.1V376h5.38v2.39h-7.93Z"/>
  <path class="cls-5" d="M369,364.41h-3.52V362h9.62v2.42h-3.5v13.95H369Z"/>
  <path class="cls-5" d="M377.54,362h2.56v16.37h-2.56Z"/>
  <path class="cls-5"
        d="M390.05,378.36,387.33,371c-.48-1.33-1.18-3.72-1.81-5.89.1,2.12.18,4.38.18,5.46v7.81h-2.27V362h3.17l2.82,7.78c.53,1.44,1.26,3.91,1.89,6-.08-2.17-.18-4.61-.18-5.74V362h2.27v16.37Z"/>
  <path class="cls-5"
        d="M403.25,366.68v-2.27H399v11.53h4.23v-4.43h-2v-2.24h4.56v6.29c0,1.64-.63,2.8-2.42,2.8h-4.43c-1.43,0-2.42-.83-2.42-2.7V364.41c0-1.74.81-2.42,2.32-2.42h4.56c1.89,0,2.39.83,2.39,2.67v2Z"/>
  <path class="cls-5" d="M408.84,362h2.49v12.52h-2.49Zm2.49,16.37h-2.49v-2.29h2.49Z"/>
  <path class="cls-5"
        d="M166,424.53V408.16H173c1.58,0,2.19.83,2.19,2.65v6.06c0,1.31-.43,2.07-1.46,2.27l1.71,5.39h-2.57l-1.61-5.26h-2.64v5.26Zm6.6-7.63v-6.32h-4v6.32Z"/>
  <path class="cls-5" d="M178.2,408.16h7.93v2.39h-5.39v4.69h3.83v2.31h-3.83v4.59h5.39v2.39H178.2Z"/>
  <path class="cls-5"
        d="M197.81,421.68c0,1.77-.78,2.85-2.44,2.85h-4.28c-1.39,0-2.39-.83-2.39-2.7v-2.72h2.54v3h4v-3.58l-5.41-2.79a2.08,2.08,0,0,1-1.18-2.17v-3.07c0-1.69.78-2.37,2.31-2.37h4.43c1.79,0,2.37.86,2.37,2.77v2.37h-2.52v-2.75h-4v3.1l5.44,2.8a2,2,0,0,1,1.13,2.16Z"/>
  <path class="cls-5"
        d="M200.81,408.16h7.05c1.53,0,2,.86,2,2.87v6.62c0,1.67-.66,2.75-2.27,2.75h-4.28v4.13h-2.54Zm6.57,9.92v-7.5h-4v7.5Z"/>
  <path class="cls-5" d="M212.7,408.16h7.93v2.39h-5.39v4.69h3.83v2.31h-3.83v4.59h5.39v2.39H212.7Z"/>
  <path class="cls-5"
        d="M232.46,418.46v3.27c0,1.64-.63,2.8-2.44,2.8h-4.38c-1.44,0-2.42-.83-2.42-2.7V410.71c0-1.79.76-2.55,2.32-2.55H230c1.93,0,2.46.91,2.46,2.77v2.39h-2.54v-2.74h-4.18v11.53h4.18v-3.65Z"/>
  <path class="cls-5" d="M238,410.58h-3.52v-2.42h9.61v2.42h-3.5v13.95H238Z"/>
  <path class="cls-5" d="M254.93,410.58H251.4v-2.42H261v2.42h-3.5v13.95h-2.59Z"/>
  <path class="cls-5" d="M263.34,408.16h2.54v7.1h4.43v-7.1h2.57v16.37h-2.57v-6.95h-4.43v6.95h-2.54Z"/>
  <path class="cls-5" d="M276.05,408.16H284v2.39H278.6v4.69h3.83v2.31H278.6v4.59H284v2.39h-7.94Z"/>
  <path class="cls-5"
        d="M299.32,412.85v-2.27h-4.2v11.53h4.23v-4.43h-2v-2.24h4.55v6.29c0,1.64-.62,2.8-2.41,2.8H295c-1.44,0-2.42-.83-2.42-2.7V410.58c0-1.74.81-2.42,2.32-2.42h4.55c1.89,0,2.39.83,2.39,2.67v2Z"/>
  <path class="cls-5"
        d="M304.86,421.83v-11.2c0-1.66.78-2.47,2.27-2.47h4.78c1.82,0,2.37.93,2.37,2.77v10.75c0,1.74-.81,2.85-2.47,2.85h-4.58C305.87,424.53,304.86,423.7,304.86,421.83Zm6.88.28V410.58h-4.36v11.53Z"/>
  <path class="cls-5"
        d="M324,424.53l-2.72-7.38c-.48-1.33-1.19-3.73-1.82-5.89.1,2.11.18,4.38.18,5.46v7.81H317.4V408.16h3.18l2.82,7.78c.53,1.44,1.26,3.9,1.89,6-.08-2.17-.18-4.61-.18-5.74v-8.06h2.26v16.37Z"/>
  <path class="cls-5"
        d="M337.22,412.85v-2.27H333v11.53h4.23v-4.43h-2v-2.24h4.55v6.29c0,1.64-.62,2.8-2.41,2.8h-4.43c-1.44,0-2.42-.83-2.42-2.7V410.58c0-1.74.81-2.42,2.32-2.42h4.55c1.89,0,2.39.83,2.39,2.67v2Z"/>
  <path class="cls-5"
        d="M175.2,464.63v3.27c0,1.64-.63,2.8-2.44,2.8h-4.39c-1.43,0-2.41-.83-2.41-2.7V456.87c0-1.78.75-2.54,2.31-2.54h4.46c1.94,0,2.47.91,2.47,2.77v2.39h-2.55v-2.74h-4.18v11.53h4.18v-3.65Z"/>
  <path class="cls-5" d="M178.09,454.33h2.55v7.1h4.43v-7.1h2.57V470.7h-2.57v-6.95h-4.43v6.95h-2.55Z"/>
  <path class="cls-5"
        d="M197.33,467.3h-4l-.6,3.4h-2.62l3.09-16.37h4.28l3.08,16.37h-2.65Zm-3.6-2.32h3.2l-1.41-8.18h-.35Z"/>
  <path class="cls-5" d="M203.05,454.33h2.54v13.95h5.54v2.42h-8.08Z"/>
  <path class="cls-5" d="M213.73,454.33h2.54v13.95h5.54v2.42h-8.08Z"/>
  <path class="cls-5" d="M224.41,454.33h7.93v2.39H227v4.69h3.83v2.31H227v4.59h5.39v2.39h-7.93Z"/>
  <path class="cls-5"
        d="M241.73,470.7,239,463.32c-.48-1.33-1.18-3.73-1.81-5.89.1,2.11.17,4.38.17,5.46v7.81h-2.26V454.33h3.17l2.82,7.78c.53,1.44,1.26,3.9,1.89,6-.08-2.17-.18-4.61-.18-5.74v-8.06h2.27V470.7Z"/>
  <path class="cls-5"
        d="M254.93,459v-2.27h-4.21v11.53H255v-4.43h-2v-2.24h4.56v6.29c0,1.64-.63,2.8-2.42,2.8h-4.43c-1.44,0-2.42-.83-2.42-2.7V456.75c0-1.74.81-2.42,2.32-2.42h4.56c1.89,0,2.39.83,2.39,2.67v2Z"/>
  <path class="cls-5" d="M260.54,454.33h7.93v2.39h-5.38v4.69h3.82v2.31h-3.82v4.59h5.38v2.39h-7.93Z"/>
  <path class="cls-5"
        d="M277.16,454.33h7c1.76,0,2.22,1.14,2.22,3v10.53a2.53,2.53,0,0,1-2.57,2.82h-6.65Zm6.67,13.95V456.75h-4.12v11.53Z"/>
  <path class="cls-5" d="M289.63,454.33h2.57V470.7h-2.57Z"/>
  <path class="cls-5"
        d="M295.52,470.7V454.33h6.92c1.59,0,2.19.83,2.19,2.65V463c0,1.31-.42,2.07-1.46,2.27l1.72,5.39h-2.57l-1.61-5.26h-2.65v5.26Zm6.6-7.63v-6.32h-4.06v6.32Z"/>
  <path class="cls-5" d="M307.68,454.33h7.93v2.39h-5.38v4.69h3.82v2.31h-3.82v4.59h5.38v2.39h-7.93Z"/>
  <path class="cls-5"
        d="M327.45,464.63v3.27c0,1.64-.63,2.8-2.44,2.8h-4.38c-1.44,0-2.42-.83-2.42-2.7V456.87c0-1.78.76-2.54,2.32-2.54H325c1.94,0,2.47.91,2.47,2.77v2.39h-2.54v-2.74h-4.18v11.53h4.18v-3.65Z"/>
  <path class="cls-5" d="M333,456.75h-3.53v-2.42h9.62v2.42h-3.5V470.7H333Z"/>
  <path class="cls-5" d="M341.38,454.33h2.54v13.95h5.54v2.42h-8.08Z"/>
  <path class="cls-5" d="M353,470.7v-6.5l-3.81-9.87h2.7l2.39,7.05h.08l2.41-7.05h2.67l-3.85,9.87v6.5Z"/>
  <path class="cls-5" d="M359.74,468.28h2.59v2.42l-2.59,2.14Z"/>
  <path class="cls-5"
        d="M379.91,464.63v3.27c0,1.64-.63,2.8-2.45,2.8h-4.38c-1.43,0-2.41-.83-2.41-2.7V456.87c0-1.78.75-2.54,2.31-2.54h4.46c1.94,0,2.47.91,2.47,2.77v2.39h-2.55v-2.74h-4.18v11.53h4.18v-3.65Z"/>
  <path class="cls-5" d="M389.2,467.3h-4l-.61,3.4H382l3.1-16.37h4.28l3.07,16.37h-2.64ZM385.6,465h3.2l-1.41-8.18H387Z"/>
  <path class="cls-5"
        d="M394.92,470.7V454.33h6.92c1.59,0,2.19.83,2.19,2.65V463c0,1.31-.43,2.07-1.46,2.27l1.71,5.39h-2.56l-1.62-5.26h-2.64v5.26Zm6.59-7.63v-6.32h-4.05v6.32Z"/>
  <path class="cls-5" d="M407.08,454.33H415v2.39h-5.39v4.69h3.83v2.31h-3.83v4.59H415v2.39h-7.93Z"/>
  <path class="cls-5"
        d="M423.7,454.33h7.05c1.54,0,2,.86,2,2.87v6.62c0,1.67-.66,2.75-2.27,2.75h-4.28v4.13H423.7Zm6.57,9.92v-7.5h-4v7.5Z"/>
  <path class="cls-5" d="M435.59,454.33h7.93v2.39h-5.39v4.69H442v2.31h-3.83v4.59h5.39v2.39h-7.93Z"/>
  <path class="cls-5"
        d="M446.29,470.7V454.33h6.92c1.59,0,2.19.83,2.19,2.65V463c0,1.31-.42,2.07-1.46,2.27l1.72,5.39h-2.57l-1.61-5.26h-2.65v5.26Zm6.6-7.63v-6.32h-4.06v6.32Z"/>
  <path class="cls-5"
        d="M467.37,467.85c0,1.76-.78,2.85-2.45,2.85h-4.28c-1.38,0-2.39-.83-2.39-2.7v-2.72h2.55v3h4.05v-3.58l-5.41-2.79a2.07,2.07,0,0,1-1.19-2.17V456.7c0-1.69.78-2.37,2.32-2.37H465c1.79,0,2.37.86,2.37,2.77v2.37h-2.52v-2.75H460.8v3.1l5.43,2.8a2,2,0,0,1,1.14,2.16Z"/>
  <path class="cls-5"
        d="M470.29,468V456.8c0-1.66.78-2.47,2.26-2.47h4.79c1.81,0,2.37.93,2.37,2.77v10.75c0,1.74-.81,2.85-2.47,2.85h-4.58C471.3,470.7,470.29,469.87,470.29,468Zm6.87.28V456.75h-4.35v11.53Z"/>
  <path class="cls-5"
        d="M489.45,470.7l-2.72-7.38c-.48-1.33-1.18-3.73-1.81-5.89.1,2.11.17,4.38.17,5.46v7.81h-2.26V454.33H486l2.82,7.78c.53,1.44,1.26,3.9,1.89,6-.08-2.17-.18-4.61-.18-5.74v-8.06h2.27V470.7Z"/>
  <path class="cls-5"
        d="M502.52,467.3h-4l-.61,3.4H495.3l3.09-16.37h4.28l3.07,16.37H503.1Zm-3.6-2.32h3.2l-1.41-8.18h-.35Z"/>
  <path class="cls-5" d="M508.24,454.33h2.54v13.95h5.54v2.42h-8.08Z"/>
  <path class="cls-5" d="M518.92,454.33h2.54v13.95H527v2.42h-8.08Z"/>
  <path class="cls-5" d="M530.52,470.7v-6.5l-3.8-9.87h2.7l2.39,7.05h.07l2.42-7.05H537l-3.85,9.87v6.5Z"/>
  <path class="cls-5"
        d="M172.65,516.87l-2.72-7.38c-.47-1.33-1.18-3.73-1.81-5.89.1,2.11.18,4.38.18,5.46v7.81H166V500.5h3.17l2.82,7.78c.53,1.44,1.26,3.9,1.89,6-.07-2.17-.17-4.61-.17-5.74V500.5H176v16.37Z"/>
  <path class="cls-5"
        d="M179.13,514.17V503c0-1.66.78-2.47,2.26-2.47h4.79c1.81,0,2.36.93,2.36,2.77V514c0,1.74-.8,2.85-2.46,2.85h-4.59C180.13,516.87,179.13,516,179.13,514.17Zm6.87.28V502.92h-4.36v11.53Z"/>
  <path class="cls-5"
        d="M197.59,500.5h7c1.54,0,2,.86,2,2.87V510c0,1.67-.65,2.75-2.26,2.75h-4.28v4.13h-2.54Zm6.57,9.92v-7.5h-4v7.5Z"/>
  <path class="cls-5"
        d="M209.4,514.17V503c0-1.66.78-2.47,2.26-2.47h4.79c1.81,0,2.36.93,2.36,2.77V514c0,1.74-.8,2.85-2.47,2.85h-4.58C210.4,516.87,209.4,516,209.4,514.17Zm6.87.28V502.92h-4.36v11.53Z"/>
  <path class="cls-5"
        d="M221,500.5h2.64l1.66,13.8h.15l1.92-13.8h3.27l2,13.8h.15l1.64-13.8H237l-2.44,16.37H231l-1.86-13.12H229l-1.81,13.12H223.5Z"/>
  <path class="cls-5" d="M239.34,500.5h7.93v2.39h-5.39v4.69h3.83v2.31h-3.83v4.59h5.39v2.39h-7.93Z"/>
  <path class="cls-5"
        d="M250,516.87V500.5H257c1.59,0,2.19.83,2.19,2.65v6.06c0,1.31-.42,2.07-1.46,2.27l1.72,5.39h-2.57l-1.61-5.27h-2.65v5.27Zm6.6-7.63v-6.32h-4.06v6.32Z"/>
  <path class="cls-5"
        d="M262.2,500.5h7.05c1.54,0,2,.86,2,2.87V510c0,1.67-.65,2.75-2.26,2.75h-4.28v4.13H262.2Zm6.58,9.92v-7.5h-4v7.5Z"/>
  <path class="cls-5"
        d="M274,514.17V503c0-1.66.79-2.47,2.27-2.47h4.78c1.82,0,2.37.93,2.37,2.77V514c0,1.74-.8,2.85-2.47,2.85h-4.58C275,516.87,274,516,274,514.17Zm6.88.28V502.92h-4.36v11.53Z"/>
  <path class="cls-5" d="M286.71,500.5h2.56v16.37h-2.56Z"/>
  <path class="cls-5"
        d="M299.22,516.87l-2.72-7.38c-.48-1.33-1.18-3.73-1.81-5.89.1,2.11.17,4.38.17,5.46v7.81H292.6V500.5h3.17l2.82,7.78c.53,1.44,1.26,3.9,1.89,6-.08-2.17-.18-4.61-.18-5.74V500.5h2.27v16.37Z"/>
  <path class="cls-5" d="M308.39,502.92h-3.53V500.5h9.62v2.42H311v13.95h-2.59Z"/>
  <path class="cls-5"
        d="M325.71,514c0,1.76-.78,2.85-2.44,2.85H319c-1.39,0-2.39-.83-2.39-2.7v-2.72h2.54v3h4.05V510.9l-5.41-2.8a2.06,2.06,0,0,1-1.18-2.16v-3.07c0-1.69.78-2.37,2.31-2.37h4.43c1.79,0,2.37.86,2.37,2.77v2.37h-2.52v-2.75h-4.05V506l5.44,2.79a2,2,0,0,1,1.13,2.17Z"/>
  <path class="cls-5" d="M328.68,500.5h2.5V513h-2.5Zm2.5,16.37h-2.5v-2.29h2.5Z"/>
  <path class="cls-5"
        d="M166,546.67h7c1.76,0,2.22,1.13,2.22,3v10.53a2.53,2.53,0,0,1-2.57,2.82H166Zm6.67,14V549.09h-4.12v11.53Z"/>
  <path class="cls-5" d="M178.35,546.67h7.93v2.39h-5.39v4.69h3.83v2.31h-3.83v4.58h5.39V563h-7.93Z"/>
  <path class="cls-5"
        d="M200,554.83c0-.83.05-2.82.1-4.71-.28,1.49-.55,3.12-.8,4.43l-2,8.49h-3.12l-2-8.46c-.28-1.44-.61-3.08-.89-4.59.08,1.92.16,4,.16,4.84V563h-2.37V546.67h3.57l3,13.5h.15l3-13.5h3.57V563H200Z"/>
  <path class="cls-5"
        d="M205.47,560.34v-11.2c0-1.66.78-2.47,2.26-2.47h4.79c1.81,0,2.36.93,2.36,2.77v10.75c0,1.74-.8,2.85-2.46,2.85h-4.59C206.47,563,205.47,562.21,205.47,560.34Zm6.87.28V549.09H208v11.53Z"/>
  <path class="cls-5"
        d="M223,546.67h2.64l1.66,13.8h.16l1.91-13.8h3.27l2,13.8h.15l1.63-13.8h2.6L236.62,563H233l-1.86-13.12H231L229.16,563h-3.65Z"/>
  <path class="cls-5" d="M241.35,546.67h2.55v7.1h4.43v-7.1h2.56V563h-2.56v-6.95H243.9V563h-2.55Z"/>
  <path class="cls-5"
        d="M260.59,559.64h-4L256,563h-2.62l3.1-16.37h4.28L263.81,563h-2.64Zm-3.6-2.32h3.2l-1.41-8.18h-.35Z"/>
  <path class="cls-5" d="M267.77,549.09h-3.53v-2.42h9.62v2.42h-3.5V563h-2.59Z"/>
  <path class="cls-5"
        d="M293.05,554.83c0-.83.05-2.82.1-4.71-.28,1.49-.55,3.12-.81,4.43l-2,8.49h-3.12l-2-8.46c-.27-1.44-.6-3.08-.88-4.59.08,1.92.15,4,.15,4.84V563H282.1V546.67h3.57l3.05,13.5h.15l2.95-13.5h3.57V563h-2.34Z"/>
  <path class="cls-5"
        d="M305.11,559.64h-4l-.6,3.4h-2.62L301,546.67h4.28L308.34,563h-2.65Zm-3.6-2.32h3.2l-1.41-8.18H303Z"/>
  <path class="cls-5" d="M312.29,549.09h-3.52v-2.42h9.61v2.42h-3.5V563h-2.59Z"/>
  <path class="cls-5" d="M323.65,549.09h-3.53v-2.42h9.62v2.42h-3.5V563h-2.59Z"/>
  <path class="cls-5" d="M332.06,546.67H340v2.39H334.6v4.69h3.83v2.31H334.6v4.58H340V563h-7.93Z"/>
  <path class="cls-5"
        d="M342.76,563V546.67h6.93c1.58,0,2.19.83,2.19,2.64v6.07c0,1.31-.43,2.07-1.46,2.27l1.71,5.39h-2.57L348,557.77H345.3V563Zm6.6-7.63v-6.32H345.3v6.32Z"/>
  <path class="cls-5"
        d="M363.84,560.19c0,1.76-.78,2.85-2.44,2.85h-4.28c-1.39,0-2.4-.83-2.4-2.7v-2.72h2.55v3h4.05v-3.57l-5.41-2.8a2.06,2.06,0,0,1-1.19-2.16V549c0-1.69.78-2.37,2.32-2.37h4.43c1.79,0,2.37.86,2.37,2.77v2.37h-2.52v-2.75h-4.05v3.1L362.7,555a2,2,0,0,1,1.14,2.17Z"/>
  <path class="cls-5" d="M168.65,595.26h-3.52v-2.42h9.61v2.42h-3.5v14h-2.59Z"/>
  <path class="cls-5" d="M177.06,592.84h2.54v7.1H184v-7.1h2.56v16.37H184v-7H179.6v7h-2.54Z"/>
  <path class="cls-5" d="M189.93,592.84h2.57v16.37h-2.57Z"/>
  <path class="cls-5"
        d="M202.44,609.21l-2.72-7.38c-.47-1.34-1.18-3.73-1.81-5.89.1,2.11.18,4.38.18,5.46v7.81h-2.27V592.84H199l2.82,7.78c.53,1.43,1.26,3.9,1.89,6-.07-2.17-.17-4.61-.17-5.74v-8.06h2.26v16.37Z"/>
  <path class="cls-5" d="M209,609.21V592.84h2.55v7.1h.58l3.39-7.1h2.87l-3.92,8.06v.17l4.1,8.14h-2.94l-3.48-7h-.6v7Z"/>
  <path class="cls-5"
        d="M226.8,592.84h7c1.76,0,2.21,1.13,2.21,3v10.53a2.54,2.54,0,0,1-2.57,2.82H226.8Zm6.67,13.95V595.26h-4.13v11.53Z"/>
  <path class="cls-5" d="M239.26,592.84h2.57v16.37h-2.57Z"/>
  <path class="cls-5" d="M245.15,592.84h8.14v2.42H247.7v5.28h4.15v2.37H247.7v6.3h-2.55Z"/>
  <path class="cls-5" d="M255.6,592.84h8.14v2.42h-5.59v5.28h4.15v2.37h-4.15v6.3H255.6Z"/>
  <path class="cls-5" d="M266.05,592.84H274v2.39H268.6v4.68h3.83v2.32H268.6v4.58H274v2.4h-7.94Z"/>
  <path class="cls-5"
        d="M276.76,609.21V592.84h6.92c1.59,0,2.19.83,2.19,2.64v6.07c0,1.31-.43,2.07-1.46,2.27l1.71,5.39h-2.56l-1.62-5.27H279.3v5.27Zm6.59-7.63v-6.32H279.3v6.32Z"/>
  <path class="cls-5" d="M288.92,592.84h7.93v2.39h-5.39v4.68h3.83v2.32h-3.83v4.58h5.39v2.4h-7.93Z"/>
  <path class="cls-5"
        d="M306.25,609.21l-2.72-7.38c-.48-1.34-1.19-3.73-1.82-5.89.1,2.11.18,4.38.18,5.46v7.81h-2.27V592.84h3.18l2.82,7.78c.52,1.43,1.26,3.9,1.89,6-.08-2.17-.18-4.61-.18-5.74v-8.06h2.26v16.37Z"/>
  <path class="cls-5" d="M315.41,595.26h-3.52v-2.42h9.62v2.42H318v14h-2.6Z"/>
  <path class="cls-5" d="M323.82,592.84h2.55v13.95h5.54v2.42h-8.09Z"/>
  <path class="cls-5" d="M335.43,609.21v-6.5l-3.8-9.87h2.7l2.39,7h.07l2.42-7h2.67L338,602.71v6.5Z"/>
  <path class="cls-5" d="M166,639h8.13v2.42h-5.58v5.28h4.15v2.37h-4.15v6.29H166Z"/>
  <path class="cls-5" d="M182.15,652h-4l-.6,3.39h-2.62L178,639h4.28l3.07,16.36h-2.64Zm-3.6-2.32h3.19l-1.41-8.18H180Z"/>
  <path class="cls-5" d="M188,639h2.56v16.36H188Z"/>
  <path class="cls-5" d="M193.91,639h2.54v14H202v2.41h-8.08Z"/>
  <path class="cls-5" d="M210.5,639h8.13v2.42h-5.58v5.28h4.15v2.37h-4.15v6.29H210.5Z"/>
  <path class="cls-5"
        d="M226.62,652h-4l-.61,3.39h-2.62l3.1-16.36h4.28l3.07,16.36H227.2Zm-3.6-2.32h3.2l-1.41-8.18h-.36Z"/>
  <path class="cls-5"
        d="M241.1,652.53c0,1.76-.78,2.84-2.44,2.84h-4.28c-1.39,0-2.4-.83-2.4-2.69V650h2.55v3h4.05v-3.57l-5.41-2.8a2.07,2.07,0,0,1-1.19-2.16v-3.07c0-1.69.78-2.37,2.32-2.37h4.43c1.79,0,2.37.86,2.37,2.77v2.37h-2.52V641.4h-4.05v3.1l5.44,2.79a2,2,0,0,1,1.13,2.17Z"/>
  <path class="cls-5" d="M246.72,641.43h-3.53V639h9.62v2.42h-3.5v13.94h-2.59Z"/>
  <path class="cls-5" d="M168.65,687.6h-3.52v-2.42h9.61v2.42h-3.5v13.94h-2.59Z"/>
  <path class="cls-5" d="M177.06,685.18h2.54v7.1H184v-7.1h2.56v16.36H184v-6.95H179.6v6.95h-2.54Z"/>
  <path class="cls-5" d="M189.78,685.18h7.93v2.39h-5.39v4.68h3.83v2.32h-3.83v4.58h5.39v2.39h-7.93Z"/>
  <path class="cls-5"
        d="M200.48,701.54V685.18h6.93c1.58,0,2.19.83,2.19,2.64v6.07c0,1.31-.43,2.07-1.46,2.27l1.71,5.38h-2.57l-1.61-5.26H203v5.26Zm6.6-7.62V687.6H203v6.32Z"/>
  <path class="cls-5" d="M212.65,685.18h7.93v2.39h-5.39v4.68H219v2.32h-3.83v4.58h5.39v2.39h-7.93Z"/>
  <path class="cls-5"
        d="M235.79,698.15h-4l-.6,3.39h-2.62l3.1-16.36h4.28L239,701.54h-2.64Zm-3.6-2.32h3.19L234,687.65h-.35Z"/>
  <path class="cls-5"
        d="M241.5,701.54V685.18h6.93c1.58,0,2.19.83,2.19,2.64v6.07c0,1.31-.43,2.07-1.46,2.27l1.71,5.38H248.3l-1.61-5.26h-2.64v5.26Zm6.6-7.62V687.6h-4v6.32Z"/>
  <path class="cls-5" d="M253.67,685.18h7.93v2.39h-5.39v4.68H260v2.32h-3.83v4.58h5.39v2.39h-7.93Z"/>
  <path class="cls-5"
        d="M276.91,701.54l-2.72-7.37c-.48-1.34-1.18-3.73-1.81-5.89.1,2.11.17,4.38.17,5.46v7.8h-2.26V685.18h3.17l2.82,7.78c.53,1.43,1.26,3.9,1.89,6-.08-2.17-.18-4.61-.18-5.74v-8.06h2.27v16.36Z"/>
  <path class="cls-5"
        d="M283.38,698.85v-11.2c0-1.67.78-2.47,2.27-2.47h4.78c1.82,0,2.37.93,2.37,2.77V698.7c0,1.74-.81,2.84-2.47,2.84h-4.58C284.39,701.54,283.38,700.71,283.38,698.85Zm6.88.28V687.6H285.9v11.53Z"/>
  <path class="cls-5"
        d="M301.84,701.54V685.18h6.92c1.59,0,2.2.83,2.2,2.64v6.07c0,1.31-.43,2.07-1.46,2.27l1.71,5.38h-2.57L307,696.28h-2.65v5.26Zm6.6-7.62V687.6h-4.06v6.32Z"/>
  <path class="cls-5"
        d="M323.29,685.18V698.7c0,1.74-.78,2.84-2.41,2.84h-4.56c-1.36,0-2.37-.83-2.37-2.69V685.18h2.55v14h4.23v-14Z"/>
  <path class="cls-5" d="M326.44,685.18H329v14h5.54v2.41h-8.09Z"/>
  <path class="cls-5" d="M337.12,685.18h7.93v2.39h-5.39v4.68h3.83v2.32h-3.83v4.58h5.39v2.39h-7.93Z"/>
  <path class="cls-5"
        d="M356.74,698.7c0,1.76-.78,2.84-2.44,2.84H350c-1.38,0-2.39-.83-2.39-2.69v-2.72h2.55v3h4.05v-3.57l-5.41-2.8a2.07,2.07,0,0,1-1.19-2.16v-3.07c0-1.69.78-2.37,2.32-2.37h4.43c1.79,0,2.37.86,2.37,2.77v2.37h-2.52v-2.75h-4.05v3.1l5.43,2.79a2,2,0,0,1,1.14,2.17Z"/>
  <path class="cls-4" d="M145.15,256.91v37.61h-9.78V278.73h-2.93v15.79h-9.78V256.91h9.78v13.45h2.93V256.91Z"/>
  <path class="cls-4"
        d="M173.09,278.93q0,5.67-.27,8a9,9,0,0,1-5.47,7.31,14,14,0,0,1-5.58,1,14.11,14.11,0,0,1-5.42-1,8.88,8.88,0,0,1-3.87-3,9,9,0,0,1-1.74-4.3,77.85,77.85,0,0,1-.28-8.13V272.5c0-3.78.09-6.45.27-8a9,9,0,0,1,5.47-7.3,13.74,13.74,0,0,1,5.57-1.05,14.13,14.13,0,0,1,5.43,1,9,9,0,0,1,5.61,7.26,81.12,81.12,0,0,1,.28,8.13Zm-9.78-12.35a11.84,11.84,0,0,0-.29-3.36,1.17,1.17,0,0,0-1.2-.73,1.34,1.34,0,0,0-1.17.59c-.27.39-.41,1.56-.41,3.5v17.56a17.08,17.08,0,0,0,.27,4,1.17,1.17,0,0,0,1.24.77,1.21,1.21,0,0,0,1.28-.89,18.87,18.87,0,0,0,.28-4.2Z"/>
  <path class="cls-4"
        d="M200.63,256.91v25.14a42.77,42.77,0,0,1-.28,6,8.25,8.25,0,0,1-1.65,3.56,8.62,8.62,0,0,1-3.61,2.76,13.59,13.59,0,0,1-5.29.94,14.91,14.91,0,0,1-5.94-1.11,9,9,0,0,1-3.86-2.91,8.11,8.11,0,0,1-1.51-3.77q-.23-2-.23-8.35V256.91H188v28.2a11.05,11.05,0,0,0,.27,3.15,1,1,0,0,0,1.08.69,1.13,1.13,0,0,0,1.19-.76,13.86,13.86,0,0,0,.27-3.56V256.91Z"/>
  <path class="cls-4"
        d="M226.8,268.3h-9.08v-2.79a5.53,5.53,0,0,0-.35-2.49,1.29,1.29,0,0,0-1.16-.53,1.49,1.49,0,0,0-1.34.72,4.2,4.2,0,0,0-.45,2.18,6.21,6.21,0,0,0,.51,2.84,7.39,7.39,0,0,0,2.76,2.3q6.54,3.87,8.23,6.36t1.69,8a14,14,0,0,1-.94,5.93A7.35,7.35,0,0,1,223,294a14.39,14.39,0,0,1-6.27,1.29,14,14,0,0,1-6.71-1.49,7.27,7.27,0,0,1-3.63-3.78,19.52,19.52,0,0,1-.86-6.53v-2.46h9.08v4.57a5.93,5.93,0,0,0,.39,2.72,1.47,1.47,0,0,0,1.35.61,1.6,1.6,0,0,0,1.46-.77,4.46,4.46,0,0,0,.47-2.28c0-2.21-.3-3.66-.9-4.34a29.4,29.4,0,0,0-4.58-3.42,46.48,46.48,0,0,1-4.83-3.5,8.15,8.15,0,0,1-2-3,13.3,13.3,0,0,1-.78-4.93,13.78,13.78,0,0,1,1.1-6.32,7.46,7.46,0,0,1,3.57-3.12,14.21,14.21,0,0,1,5.94-1.13,15.55,15.55,0,0,1,6.5,1.23,6.81,6.81,0,0,1,3.55,3.11q.87,1.86.87,6.35Z"/>
  <path class="cls-4" d="M232.35,256.91h16.3v7.53h-6.52v7.13h6.1v7.16h-6.1V287h7.17v7.52h-17Z"/>
  <path class="cls-4"
        d="M263.83,256.91h6.92a52.48,52.48,0,0,1,9.38.54,6.4,6.4,0,0,1,4,2.73q1.54,2.19,1.55,7c0,2.93-.37,4.89-1.1,5.9s-2.16,1.61-4.29,1.81a7.42,7.42,0,0,1,3.9,1.93,5.86,5.86,0,0,1,1.24,2.22,35,35,0,0,1,.25,5.56v9.92h-9.09V282a8.79,8.79,0,0,0-.47-3.74c-.32-.48-1.15-.72-2.5-.72v17h-9.78Zm9.78,6.44v8.36a4.32,4.32,0,0,0,2.31-.45c.44-.31.66-1.28.66-2.94v-2.07a3.14,3.14,0,0,0-.64-2.35A3.63,3.63,0,0,0,273.61,263.35Z"/>
  <path class="cls-4"
        d="M313.35,256.91v25.14a42.77,42.77,0,0,1-.28,6,8,8,0,0,1-1.65,3.56,8.55,8.55,0,0,1-3.61,2.76,13.5,13.5,0,0,1-5.28.94,14.93,14.93,0,0,1-5.95-1.11,9.09,9.09,0,0,1-3.86-2.91,8.11,8.11,0,0,1-1.51-3.77q-.22-2-.23-8.35V256.91h9.78v28.2a11.05,11.05,0,0,0,.27,3.15,1,1,0,0,0,1.08.69,1.12,1.12,0,0,0,1.19-.76,13.86,13.86,0,0,0,.27-3.56V256.91Z"/>
  <path class="cls-4" d="M328.58,256.91V287h5.95v7.52H318.8V256.91Z"/>
  <path class="cls-4" d="M338.56,256.91h16.31v7.53h-6.53v7.13h6.11v7.16h-6.11V287h7.18v7.52h-17Z"/>
  <path class="cls-4"
        d="M380.72,268.3h-9.09v-2.79a5.58,5.58,0,0,0-.34-2.49,1.31,1.31,0,0,0-1.17-.53,1.48,1.48,0,0,0-1.33.72,4.2,4.2,0,0,0-.45,2.18,6.21,6.21,0,0,0,.51,2.84,7.39,7.39,0,0,0,2.76,2.3q6.52,3.87,8.22,6.36c1.14,1.66,1.7,4.33,1.7,8a14,14,0,0,1-.94,5.93A7.38,7.38,0,0,1,377,294a14.33,14.33,0,0,1-6.27,1.29,13.93,13.93,0,0,1-6.7-1.49,7.27,7.27,0,0,1-3.63-3.78,19.27,19.27,0,0,1-.86-6.53v-2.46h9.08v4.57a6.12,6.12,0,0,0,.38,2.72,1.5,1.5,0,0,0,1.36.61,1.59,1.59,0,0,0,1.45-.77,4.35,4.35,0,0,0,.48-2.28c0-2.21-.3-3.66-.91-4.34a29.14,29.14,0,0,0-4.57-3.42,47,47,0,0,1-4.84-3.5,8.41,8.41,0,0,1-2-3,13.3,13.3,0,0,1-.78-4.93c0-2.88.37-5,1.11-6.32a7.39,7.39,0,0,1,3.56-3.12,14.26,14.26,0,0,1,5.95-1.13,15.5,15.5,0,0,1,6.49,1.23,6.8,6.8,0,0,1,3.56,3.11q.87,1.86.87,6.35Z"/>
  <path class="cls-4"
        d="M387.78,256.12v2.68l2.46-.85.75,2-2.46,1,1.54,2.19-1.66,1.23-1.67-2.21-1.65,2.21-1.74-1.23,1.56-2.27-2.48-.95.72-2,2.54.85v-2.68Z"/>
  <circle class="cls-1" cx="139.8" cy="416.4" r="14.32"/>
  <circle class="cls-1" cx="139.8" cy="370.2" r="14.32"/>
  <circle class="cls-1" cx="139.8" cy="462.6" r="14.32"/>
  <circle class="cls-1" cx="139.8" cy="508.8" r="14.32"/>
  <circle class="cls-1" cx="139.8" cy="555" r="14.32"/>
  <circle class="cls-1" cx="139.8" cy="601.2" r="14.32"/>
  <circle class="cls-1" cx="139.8" cy="647.4" r="14.32"/>
  <circle class="cls-1" cx="139.8" cy="693.59" r="14.32"/>
  <path class="cls-3" d="M142.35,362.72v15H138.7V367.47a2.57,2.57,0,0,1-2.17,1.16v-3c1.22-.09,2.17-1.09,2.17-2.91Z"/>
  <path class="cls-3"
        d="M134.35,423.92v-3l7.48-6.68V412h-4v1.9H134.3v-2c0-1.78.56-3,2.38-3H143c1.61,0,2.31,1.06,2.31,2.93v2a2.25,2.25,0,0,1-.83,1.78l-6.14,5.22h7.15v3Z"/>
  <path class="cls-3"
        d="M134.09,467.56V465h3.7v2h4.11v-2.93H138V461h3.72v-2.77h-4V460h-3.53v-1.76c0-1.82.57-3.11,2.17-3.11H143c1.71,0,2.26,1.24,2.26,3.14v2.17c0,1.33-.53,1.84-1.18,1.84,1,.14,1.34.72,1.34,1.87v3.14a2.54,2.54,0,0,1-2.63,2.84h-6.07A2.54,2.54,0,0,1,134.09,467.56Z"/>
  <path class="cls-3"
        d="M140.91,516.32v-2.15h-7.14v-3.23l5.82-9.63h4.85v9.63h1.5v3.23h-1.5v2.15Zm0-9.86c0-.07,0-.69,0-1-.1.26-.12-.16-.19-.09l-3.32,5.54h3.51Z"/>
  <path class="cls-3"
        d="M137.87,557.28v2h4v-2.88h-7.5v-8.85H144.8v3.28h-6.91v2.38h4.71c2.08,0,2.73,1.2,2.73,3.3v2.79c0,1.53-.44,3.26-2.7,3.26h-5.45a2.56,2.56,0,0,1-2.82-2.79v-2.45Z"/>
  <path class="cls-3"
        d="M134.34,605.92v-9.39a2.53,2.53,0,0,1,2.75-2.82h7.43V597h-6.65v2.38h4.8c2.08,0,2.73,1.2,2.73,3.3v2.79c0,1.53-.44,3.26-2.71,3.26h-5.54A2.56,2.56,0,0,1,134.34,605.92Zm7.59-3.37h-4.06v2.89h4.06Z"/>
  <path class="cls-3"
        d="M137.4,652.72a14.22,14.22,0,0,1,3.81-9.53h-6.58v-3.28h10.25v3.28c-1.8,2.22-3.86,5.12-3.86,9.53v2.2H137.4Z"/>
  <path class="cls-3"
        d="M134.05,698.32V695c0-1.13.37-1.68,1.32-1.84-.7-.05-1.16-.58-1.16-1.87v-2.08c0-2,.58-3.14,2.26-3.14h6.65c1.76,0,2.24,1.25,2.24,3.14v2.08c0,1.34-.48,1.87-1.15,1.87.94.16,1.31.71,1.31,1.84v3.28a2.6,2.6,0,0,1-2.58,2.8h-6.28A2.64,2.64,0,0,1,134.05,698.32Zm7.78-6.42v-2.67h-4.06v2.67ZM142,698v-3h-4.22v3Z"/>
  <path class="cls-4"
        d="M118.72,680.5v3.34l3.08-1.06.93,2.45-3.07,1.29,1.93,2.74-2.08,1.54-2.1-2.76-2.06,2.76-2.18-1.54,2-2.84-3.1-1.19.89-2.45,3.18,1.06V680.5Z"/>
</svg>
